<?xml version="1.0" standalone="no"?>
<!DOCTYPE svg PUBLIC "-//W3C//DTD SVG 20010904//EN"
 "http://www.w3.org/TR/2001/REC-SVG-20010904/DTD/svg10.dtd">
<svg version="1.0" xmlns="http://www.w3.org/2000/svg"
 width="320.000000pt" height="320.000000pt" viewBox="0 0 320.000000 320.000000"
 preserveAspectRatio="xMidYMid meet">
<metadata>
Created by potrace 1.14, written by Peter Selinger 2001-2017
</metadata>
<g transform="translate(0.000000,320.000000) scale(0.100000,-0.100000)"
fill="#000000" stroke="none">
<path d="M1458 3195 c-1 -1 -34 -5 -72 -9 -38 -4 -72 -9 -76 -11 -4 -3 -25 -7
-45 -11 -60 -9 -218 -60 -307 -99 -404 -175 -731 -530 -871 -945 -65 -193 -81
-292 -81 -495 0 -202 2 -224 40 -411 13 -67 73 -225 125 -329 209 -422 583
-721 1052 -840 52 -13 121 -27 153 -31 75 -10 365 -11 424 -2 25 4 60 10 79
12 62 10 194 47 288 82 606 227 1019 811 1028 1454 4 273 -46 504 -159 740
-40 82 -40 82 -110 188 -82 126 -196 253 -305 342 -24 19 -48 40 -55 45 -29
27 -170 114 -251 155 -130 66 -300 123 -435 146 -25 4 -54 9 -65 11 -26 4
-352 12 -357 8z"/>
</g>
</svg>
